<svg width="60" height="61" viewBox="0 0 60 61" fill="none" xmlns="http://www.w3.org/2000/svg">
<rect x="0.5" y="1" width="59" height="59" rx="29.5" stroke="#22B3C1"/>
<path d="M29.8063 25.4844C29.9 25.3906 30.0406 25.3438 30.1813 25.3438C30.275 25.3438 30.4156 25.3906 30.5094 25.4844L39.1813 32.5625V40.25C39.1813 40.6719 38.8063 41 38.4313 41H33.1344C32.7594 41 32.3844 40.6719 32.3844 40.25V35.75C32.3844 35.375 32.0563 35 31.6344 35H28.6344C28.2594 35 27.8844 35.375 27.8844 35.75V40.25C27.8844 40.6719 27.5563 41 27.1813 41H21.9313C21.5094 41 21.1813 40.6719 21.1813 40.25V32.6094L29.8063 25.4844ZM43.4469 30.3125C43.5875 30.4062 43.6813 30.5938 43.6813 30.7344C43.6813 30.875 43.6344 31.0156 43.5406 31.1094L42.3219 32.5625C42.2281 32.7031 42.0875 32.75 41.9 32.75C41.7594 32.75 41.6188 32.7031 41.525 32.6094L30.5094 23.5625C30.4156 23.4688 30.275 23.4219 30.1813 23.4219C30.0406 23.4219 29.9 23.4688 29.8063 23.5625L18.7906 32.6094C18.6969 32.7031 18.5563 32.75 18.4156 32.75C18.2281 32.75 18.0875 32.7031 17.9938 32.5625L16.775 31.1094C16.7281 31.0156 16.6344 30.875 16.6344 30.7344C16.6344 30.5938 16.7281 30.4062 16.8688 30.3125L28.7281 20.5156C29.1031 20.2344 29.6188 20.0469 30.1813 20.0469C30.6969 20.0469 31.2125 20.2344 31.5875 20.5156L35.8063 23.9844V20.6094C35.8063 20.2812 36.0406 20.0469 36.3688 20.0469H38.9938C39.275 20.0469 39.5563 20.2812 39.5563 20.6094V27.0781L43.4469 30.3125Z" fill="#22B3C1"/>
</svg>
