<svg width="13" height="15" viewBox="0 0 13 15" fill="none" xmlns="http://www.w3.org/2000/svg">
<path d="M12.6418 13.645C12.8059 13.645 12.97 13.8091 12.97 13.9731V14.52H0.719971V13.9731C0.719971 13.8091 0.856689 13.645 1.0481 13.645H1.59497V1.17627C1.59497 0.820801 1.86841 0.52002 2.25122 0.52002H11.4387C11.7942 0.52002 12.095 0.820801 12.095 1.17627V13.645H12.6418ZM4.21997 2.59814V3.69189C4.21997 3.8833 4.35669 4.02002 4.5481 4.02002H5.64185C5.80591 4.02002 5.96997 3.8833 5.96997 3.69189V2.59814C5.96997 2.43408 5.80591 2.27002 5.64185 2.27002H4.5481C4.35669 2.27002 4.21997 2.43408 4.21997 2.59814ZM4.21997 5.22314V6.31689C4.21997 6.5083 4.35669 6.64502 4.5481 6.64502H5.64185C5.80591 6.64502 5.96997 6.5083 5.96997 6.31689V5.22314C5.96997 5.05908 5.80591 4.89502 5.64185 4.89502H4.5481C4.35669 4.89502 4.21997 5.05908 4.21997 5.22314ZM5.64185 9.27002C5.80591 9.27002 5.96997 9.1333 5.96997 8.94189V7.84814C5.96997 7.68408 5.80591 7.52002 5.64185 7.52002H4.5481C4.35669 7.52002 4.21997 7.68408 4.21997 7.84814V8.94189C4.21997 9.1333 4.35669 9.27002 4.5481 9.27002H5.64185ZM7.71997 13.645V11.3481C7.71997 11.1841 7.55591 11.02 7.39185 11.02H6.2981C6.10669 11.02 5.96997 11.1841 5.96997 11.3481V13.645H7.71997ZM9.46997 8.94189V7.84814C9.46997 7.68408 9.30591 7.52002 9.14185 7.52002H8.0481C7.85669 7.52002 7.71997 7.68408 7.71997 7.84814V8.94189C7.71997 9.1333 7.85669 9.27002 8.0481 9.27002H9.14185C9.30591 9.27002 9.46997 9.1333 9.46997 8.94189ZM9.46997 6.31689V5.22314C9.46997 5.05908 9.30591 4.89502 9.14185 4.89502H8.0481C7.85669 4.89502 7.71997 5.05908 7.71997 5.22314V6.31689C7.71997 6.5083 7.85669 6.64502 8.0481 6.64502H9.14185C9.30591 6.64502 9.46997 6.5083 9.46997 6.31689ZM9.46997 3.69189V2.59814C9.46997 2.43408 9.30591 2.27002 9.14185 2.27002H8.0481C7.85669 2.27002 7.71997 2.43408 7.71997 2.59814V3.69189C7.71997 3.8833 7.85669 4.02002 8.0481 4.02002H9.14185C9.30591 4.02002 9.46997 3.8833 9.46997 3.69189Z" fill="#AFAFAF"/>
</svg>
