<svg width="14" height="15" viewBox="0 0 14 15" fill="none" xmlns="http://www.w3.org/2000/svg">
<path d="M7 0.858643C10.7461 0.858643 13.7812 3.8938 13.7812 7.63989C13.7812 11.386 10.7461 14.4211 7 14.4211C3.25391 14.4211 0.21875 11.386 0.21875 7.63989C0.21875 3.8938 3.25391 0.858643 7 0.858643ZM9.51562 9.41724C9.57031 9.36255 9.625 9.25317 9.625 9.1438C9.625 9.00708 9.54297 8.89771 9.46094 8.81567L7.875 7.63989V3.70239C7.875 3.48364 7.65625 3.26489 7.4375 3.26489H6.5625C6.31641 3.26489 6.125 3.48364 6.125 3.70239V7.96802C6.125 8.32349 6.26172 8.62427 6.53516 8.81567L8.36719 10.1829C8.42188 10.2375 8.53125 10.2922 8.61328 10.2922C8.77734 10.2922 8.88672 10.2102 8.96875 10.1008L9.51562 9.41724Z" fill="#AFAFAF"/>
</svg>
