<svg width="60" height="61" viewBox="0 0 60 61" fill="none" xmlns="http://www.w3.org/2000/svg">
<rect y="0.160156" width="60" height="60.5" rx="30" fill="#F0F0F0"/>
<path d="M39.7688 28.1211C39.925 28.0039 40.1594 28.1211 40.1594 28.3164V36.2852C40.1594 37.3398 39.3 38.1602 38.2844 38.1602H22.0344C20.9797 38.1602 20.1594 37.3398 20.1594 36.2852V28.3164C20.1594 28.1211 20.3547 28.0039 20.5109 28.1211C21.4094 28.8242 22.5422 29.6836 26.5266 32.5742C27.3469 33.1602 28.7531 34.4492 30.1594 34.4492C31.5266 34.4492 32.9719 33.1602 33.7531 32.5742C37.7375 29.6836 38.8703 28.8242 39.7688 28.1211ZM30.1594 33.1602C29.2219 33.1992 27.9328 32.0273 27.2688 31.5586C22.0734 27.8086 21.6828 27.457 20.5109 26.5195C20.2766 26.3633 20.1594 26.0898 20.1594 25.7773V25.0352C20.1594 24.0195 20.9797 23.1602 22.0344 23.1602H38.2844C39.3 23.1602 40.1594 24.0195 40.1594 25.0352V25.7773C40.1594 26.0898 40.0031 26.3633 39.7688 26.5195C38.5969 27.457 38.2063 27.8086 33.0109 31.5586C32.3469 32.0273 31.0578 33.1992 30.1594 33.1602Z" fill="#22B3C1"/>
</svg>
