<svg width="19" height="15" viewBox="0 0 19 15" fill="none" xmlns="http://www.w3.org/2000/svg">
<path d="M9.71626 4.10645C9.77876 4.04395 9.87251 4.0127 9.96626 4.0127C10.0288 4.0127 10.1225 4.04395 10.185 4.10645L15.9663 8.8252V13.9502C15.9663 14.2314 15.7163 14.4502 15.4663 14.4502H11.935C11.685 14.4502 11.435 14.2314 11.435 13.9502V10.9502C11.435 10.7002 11.2163 10.4502 10.935 10.4502H8.93501C8.68501 10.4502 8.43501 10.7002 8.43501 10.9502V13.9502C8.43501 14.2314 8.21626 14.4502 7.96626 14.4502H4.46626C4.18501 14.4502 3.96626 14.2314 3.96626 13.9502V8.85645L9.71626 4.10645ZM18.81 7.3252C18.9038 7.3877 18.9663 7.5127 18.9663 7.60645C18.9663 7.7002 18.935 7.79395 18.8725 7.85645L18.06 8.8252C17.9975 8.91895 17.9038 8.9502 17.7788 8.9502C17.685 8.9502 17.5913 8.91895 17.5288 8.85645L10.185 2.8252C10.1225 2.7627 10.0288 2.73145 9.96626 2.73145C9.87251 2.73145 9.77876 2.7627 9.71626 2.8252L2.37251 8.85645C2.31001 8.91895 2.21626 8.9502 2.12251 8.9502C1.99751 8.9502 1.90376 8.91895 1.84126 8.8252L1.02876 7.85645C0.997505 7.79395 0.935005 7.7002 0.935005 7.60645C0.935005 7.5127 0.997505 7.3877 1.09126 7.3252L8.99751 0.793945C9.24751 0.606445 9.59126 0.481445 9.96626 0.481445C10.31 0.481445 10.6538 0.606445 10.9038 0.793945L13.7163 3.10645V0.856445C13.7163 0.637695 13.8725 0.481445 14.0913 0.481445H15.8413C16.0288 0.481445 16.2163 0.637695 16.2163 0.856445V5.16895L18.81 7.3252Z" fill="#AFAFAF"/>
</svg>
