<svg width="40" height="41" viewBox="0 0 40 41" fill="none" xmlns="http://www.w3.org/2000/svg">
<rect y="0.660156" width="40" height="40" rx="20" fill="white"/>
<path d="M13 18.2852V14.4102C13 14.0039 13.3125 13.6602 13.75 13.6602H17.625C17.8125 13.6602 18 13.8477 18 14.0352V15.2852C18 15.5039 17.8125 15.6602 17.625 15.6602H15V18.2852C15 18.5039 14.8125 18.6602 14.625 18.6602H13.375C13.1562 18.6602 13 18.5039 13 18.2852ZM22 14.0352C22 13.8477 22.1562 13.6602 22.375 13.6602H26.25C26.6562 13.6602 27 14.0039 27 14.4102V18.2852C27 18.5039 26.8125 18.6602 26.625 18.6602H25.375C25.1562 18.6602 25 18.5039 25 18.2852V15.6602H22.375C22.1562 15.6602 22 15.5039 22 15.2852V14.0352ZM26.625 22.6602C26.8125 22.6602 27 22.8477 27 23.0352V26.9102C27 27.3477 26.6562 27.6602 26.25 27.6602H22.375C22.1562 27.6602 22 27.5039 22 27.2852V26.0352C22 25.8477 22.1562 25.6602 22.375 25.6602H25V23.0352C25 22.8477 25.1562 22.6602 25.375 22.6602H26.625ZM18 27.2852C18 27.5039 17.8125 27.6602 17.625 27.6602H13.75C13.3125 27.6602 13 27.3477 13 26.9102V23.0352C13 22.8477 13.1562 22.6602 13.375 22.6602H14.625C14.8125 22.6602 15 22.8477 15 23.0352V25.6602H17.625C17.8125 25.6602 18 25.8477 18 26.0352V27.2852Z" fill="#22B3C1"/>
</svg>
