<svg width="17" height="24" viewBox="0 0 17 24" fill="none" xmlns="http://www.w3.org/2000/svg">
<mask id="mask0_2_537" style="mask-type:luminance" maskUnits="userSpaceOnUse" x="0" y="4" width="17" height="17">
<path d="M16.23 4.64H0.230042V20.64H16.23V4.64Z" fill="white"/>
</mask>
<g mask="url(#mask0_2_537)">
<path d="M8.23247 8.53192C5.9638 8.53192 4.12714 10.3706 4.12714 12.6373C4.12714 14.9059 5.9658 16.7426 8.23247 16.7426C10.5011 16.7426 12.3378 14.9039 12.3378 12.6373C12.3378 10.3686 10.4991 8.53192 8.23247 8.53192ZM8.23247 15.3019C6.7598 15.3019 5.5678 14.1093 5.5678 12.6373C5.5678 11.1653 6.76047 9.97259 8.23247 9.97259C9.70447 9.97259 10.8971 11.1653 10.8971 12.6373C10.8978 14.1093 9.70514 15.3019 8.23247 15.3019Z" fill="white"/>
<path d="M11.5287 4.69091C10.0567 4.62224 6.41067 4.62557 4.93734 4.69091C3.64267 4.75157 2.50067 5.06424 1.58001 5.9849C0.0413432 7.52357 0.23801 9.5969 0.23801 12.6376C0.23801 15.7496 0.0646766 17.7749 1.58001 19.2903C3.12467 20.8343 5.22801 20.6323 8.23269 20.6323C11.3154 20.6323 12.3794 20.6343 13.4694 20.2123C14.9514 19.6369 16.07 18.3123 16.1794 15.9329C16.2487 14.4603 16.2447 10.8149 16.1794 9.34157C16.0474 6.5329 14.54 4.82957 11.5287 4.69091ZM13.8587 18.2723C12.85 19.2809 11.4507 19.1909 8.21336 19.1909C4.88001 19.1909 3.54334 19.2403 2.56801 18.2623C1.44467 17.1443 1.64801 15.3489 1.64801 12.6269C1.64801 8.94357 1.27001 6.2909 4.96667 6.10157C5.81601 6.07157 6.06601 6.06157 8.20402 6.06157L8.23402 6.08157C11.7867 6.08157 14.574 5.70957 14.7414 9.40557C14.7794 10.2489 14.788 10.5022 14.788 12.6369C14.7874 15.9316 14.85 17.2763 13.8587 18.2723Z" fill="white"/>
<path d="M12.5007 9.32949C13.0306 9.32949 13.46 8.89999 13.46 8.37016C13.46 7.84033 13.0306 7.41083 12.5007 7.41083C11.9709 7.41083 11.5414 7.84033 11.5414 8.37016C11.5414 8.89999 11.9709 9.32949 12.5007 9.32949Z" fill="white"/>
</g>
</svg>
