<svg width="18" height="15" viewBox="0 0 18 15" fill="none" xmlns="http://www.w3.org/2000/svg">
<path d="M13.5898 6.81958C14.1094 7.33911 14.1094 8.18677 13.5898 8.67896L8.01172 14.2571C7.51953 14.7766 6.67188 14.7766 6.15234 14.2571L0.382812 8.48755C0.136719 8.24146 0 7.91333 0 7.55786V1.95239C0 1.24146 0.574219 0.639893 1.3125 0.639893H6.89062C7.24609 0.639893 7.57422 0.803955 7.82031 1.05005L13.5898 6.81958ZM3.0625 5.01489C3.77344 5.01489 4.375 4.44067 4.375 3.70239C4.375 2.99146 3.77344 2.38989 3.0625 2.38989C2.32422 2.38989 1.75 2.99146 1.75 3.70239C1.75 4.44067 2.32422 5.01489 3.0625 5.01489ZM17.0898 8.67896L11.5117 14.2571C11.0195 14.7766 10.1719 14.7766 9.65234 14.2571L14.4102 9.49927C14.875 9.03442 15.1484 8.40552 15.1484 7.74927C15.1484 7.09302 14.875 6.49146 14.4102 6.02661L9.05078 0.639893H10.3906C10.7461 0.639893 11.0742 0.803955 11.3203 1.05005L17.0898 6.81958C17.6094 7.33911 17.6094 8.18677 17.0898 8.67896Z" fill="#AFAFAF"/>
</svg>
