<svg width="15" height="17" viewBox="0 0 15 17" fill="none" xmlns="http://www.w3.org/2000/svg">
<path d="M7.66 8.4502C5.44125 8.4502 3.66 6.66895 3.66 4.4502C3.66 2.2627 5.44125 0.450195 7.66 0.450195C9.8475 0.450195 11.66 2.2627 11.66 4.4502C11.66 6.66895 9.8475 8.4502 7.66 8.4502ZM10.4413 9.4502C12.7538 9.4502 14.66 11.3564 14.66 13.6689V14.9502C14.66 15.7939 13.9725 16.4502 13.16 16.4502H2.16C1.31625 16.4502 0.660004 15.7939 0.660004 14.9502V13.6689C0.660004 11.3564 2.535 9.4502 4.8475 9.4502H5.37875C6.06625 9.79395 6.8475 9.9502 7.66 9.9502C8.4725 9.9502 9.2225 9.79395 9.91 9.4502H10.4413Z" fill="#AFAFAF"/>
</svg>
