<svg width="60" height="61" viewBox="0 0 60 61" fill="none" xmlns="http://www.w3.org/2000/svg">
<rect y="0.160156" width="60" height="60.5" rx="30" fill="#F0F0F0"/>
<path d="M39.4172 21.6367C39.8469 21.7539 40.1594 22.1055 40.1594 22.5352C40.1594 32.5742 32.0344 40.6602 22.0344 40.6602C21.5656 40.6602 21.2141 40.3867 21.0969 39.957L20.1594 35.8945C20.0813 35.4648 20.2766 34.9961 20.7063 34.8008L25.0813 32.9258C25.4719 32.7695 25.9016 32.8867 26.175 33.1992L28.1281 35.582C31.175 34.1367 33.6359 31.6367 35.0422 28.668L32.6594 26.7148C32.3469 26.4414 32.2297 26.0117 32.3859 25.6211L34.2609 21.2461C34.4563 20.8164 34.925 20.582 35.3547 20.6992L39.4172 21.6367Z" fill="#22B3C1"/>
</svg>
