<svg width="17" height="15" viewBox="0 0 17 15" fill="none" xmlns="http://www.w3.org/2000/svg">
<path d="M13.845 5.77002C14.802 5.77002 16.47 6.56299 16.47 7.52002C16.47 8.50439 14.802 9.27002 13.845 9.27002H10.7004L7.82935 14.3013C7.74731 14.438 7.6106 14.52 7.44653 14.52H5.66919C5.36841 14.52 5.14966 14.2466 5.23169 13.9731L6.57153 9.27002H3.78247L2.57935 10.856C2.49731 10.9653 2.38794 11.02 2.25122 11.02H1.15747C0.856689 11.02 0.637939 10.7739 0.719971 10.5005L1.59497 7.52002L0.719971 4.56689C0.637939 4.29346 0.856689 4.02002 1.15747 4.02002H2.25122C2.38794 4.02002 2.49731 4.10205 2.57935 4.21143L3.78247 5.77002H6.57153L5.23169 1.09424C5.14966 0.820801 5.36841 0.52002 5.66919 0.52002H7.44653C7.6106 0.52002 7.74731 0.629395 7.82935 0.766113L10.7004 5.77002H13.845Z" fill="#AFAFAF"/>
</svg>
