<svg width="60" height="61" viewBox="0 0 60 61" fill="none" xmlns="http://www.w3.org/2000/svg">
<rect x="0.5" y="1" width="59" height="59" rx="29.5" stroke="#22B3C1"/>
<path d="M30.1625 30.5C26.8344 30.5 24.1625 27.8281 24.1625 24.5C24.1625 21.2188 26.8344 18.5 30.1625 18.5C33.4438 18.5 36.1625 21.2188 36.1625 24.5C36.1625 27.8281 33.4438 30.5 30.1625 30.5ZM34.3344 32C37.8031 32 40.6625 34.8594 40.6625 38.3281V40.25C40.6625 41.5156 39.6313 42.5 38.4125 42.5H21.9125C20.6469 42.5 19.6625 41.5156 19.6625 40.25V38.3281C19.6625 34.8594 22.475 32 25.9438 32H26.7406C27.7719 32.5156 28.9438 32.75 30.1625 32.75C31.3813 32.75 32.5063 32.5156 33.5375 32H34.3344Z" fill="#22B3C1"/>
</svg>
