<svg width="13" height="13" viewBox="0 0 13 13" fill="none" xmlns="http://www.w3.org/2000/svg">
<path d="M5.60532 1.03223L6.20688 0.430664C6.48032 0.18457 6.89047 0.18457 7.13657 0.430664L12.4686 5.73535C12.7147 6.00879 12.7147 6.41895 12.4686 6.66504L7.13657 11.9971C6.89047 12.2432 6.48032 12.2432 6.20688 11.9971L5.60532 11.3955C5.35922 11.1221 5.35922 10.7119 5.60532 10.4385L8.91391 7.29395H1.06625C0.683441 7.29395 0.410004 7.02051 0.410004 6.6377V5.7627C0.410004 5.40723 0.683441 5.10645 1.06625 5.10645H8.91391L5.60532 1.98926C5.35922 1.71582 5.33188 1.30566 5.60532 1.03223Z" fill="#22B3C1"/>
</svg>
