<svg width="17" height="24" viewBox="0 0 17 24" fill="none" xmlns="http://www.w3.org/2000/svg">
<mask id="mask0_2_529" style="mask-type:luminance" maskUnits="userSpaceOnUse" x="0" y="4" width="17" height="17">
<path d="M16.23 4.64H0.230042V20.64H16.23V4.64Z" fill="white"/>
</mask>
<g mask="url(#mask0_2_529)">
<path d="M11.4419 10.308L7.38459 13.6243L7.19366 13.7807C7.15173 13.814 7.12433 13.8622 7.11733 13.9153L7.07459 14.268L6.95733 15.2589C6.95839 15.271 6.95466 15.2829 6.94686 15.2923C6.93913 15.3015 6.92799 15.3074 6.91593 15.3085C6.90386 15.3095 6.89189 15.3058 6.88261 15.2981C6.87331 15.2903 6.86748 15.2791 6.8664 15.2671L6.5364 14.2762L6.19549 13.2625C6.18095 13.2171 6.18281 13.1681 6.20075 13.1239C6.21869 13.0797 6.25157 13.0431 6.29367 13.0207L10.5155 10.6007L11.3101 10.1462C11.4255 10.0789 11.5437 10.2244 11.4419 10.308Z" fill="white"/>
<path d="M14.0482 4.64H2.41186C1.83321 4.64 1.27825 4.86987 0.869081 5.27904C0.459911 5.68821 0.230042 6.24317 0.230042 6.82182V18.4582C0.230042 19.0369 0.459911 19.5918 0.869081 20.0009C1.27825 20.4101 1.83321 20.64 2.41186 20.64H14.0482C14.6269 20.64 15.1818 20.4101 15.591 20.0009C16.0002 19.5918 16.23 19.0369 16.23 18.4582V6.82182C16.23 6.24317 16.0002 5.68821 15.591 5.27904C15.1818 4.86987 14.6269 4.64 14.0482 4.64ZM13.22 9.27091L11.6582 16.1718C11.5846 16.4955 11.1737 16.6418 10.8855 16.4445L8.52731 14.8445L7.32638 15.98C7.27744 16.0259 7.21798 16.0593 7.15324 16.077C7.08851 16.0948 7.02038 16.0965 6.95477 16.082C6.88924 16.0675 6.82821 16.0372 6.777 15.9937C6.7258 15.9503 6.68596 15.8951 6.66095 15.8327L6.22731 14.56L5.79368 13.2873L3.46914 12.6509C3.40414 12.6367 3.34565 12.6015 3.30277 12.5506C3.25989 12.4997 3.23501 12.4361 3.232 12.3697C3.229 12.3032 3.24803 12.2376 3.28614 12.1831C3.32426 12.1286 3.37932 12.0882 3.44277 12.0682L12.4228 8.83273L12.5882 8.77363C12.9364 8.65182 13.2964 8.93363 13.22 9.27091Z" fill="white"/>
</g>
</svg>
