<svg width="60" height="61" viewBox="0 0 60 61" fill="none" xmlns="http://www.w3.org/2000/svg">
<rect x="0.5" y="1" width="59" height="59" rx="29.5" stroke="#22B3C1"/>
<path d="M34.2969 26H26C26.7031 21.8281 28.2969 18.875 30.1719 18.875C32 18.875 33.6406 21.8281 34.2969 26ZM25.6719 30.5C25.6719 29.4688 25.7188 28.4844 25.8125 27.5H34.4844C34.5781 28.4844 34.625 29.4688 34.625 30.5C34.625 31.5781 34.5781 32.5625 34.4844 33.5H25.8125C25.7188 32.5625 25.6719 31.5781 25.6719 30.5ZM40.8594 26H35.7969C35.375 23.375 34.625 20.9844 33.4531 19.3906C36.8281 20.375 39.5469 22.8594 40.8594 26ZM26.8438 19.3906C25.6719 20.9844 24.9219 23.375 24.5 26H19.4375C20.75 22.8594 23.4688 20.375 26.8438 19.3906ZM41.375 27.5C41.6094 28.4844 41.75 29.4688 41.75 30.5C41.75 31.5781 41.6094 32.5625 41.375 33.5H35.9844C36.0781 32.5156 36.1719 31.5312 36.1719 30.5C36.1719 29.5156 36.0781 28.4844 35.9844 27.5H41.375ZM24.1719 30.5C24.1719 31.5312 24.2188 32.5156 24.3125 33.5H18.9219C18.6875 32.5625 18.5469 31.5781 18.5469 30.5C18.5469 29.4688 18.6875 28.4844 18.9219 27.5H24.3125C24.2188 28.4844 24.1719 29.5156 24.1719 30.5ZM26 35H34.2969C33.6406 39.2188 32 42.125 30.1719 42.125C28.2969 42.125 26.7031 39.2188 26 35ZM33.4531 41.6562C34.625 40.0625 35.4219 37.6719 35.7969 35H40.8594C39.5469 38.1875 36.8281 40.6719 33.4531 41.6562ZM19.4375 35H24.5C24.9219 37.6719 25.6719 40.0625 26.8438 41.6562C23.4688 40.6719 20.75 38.1875 19.4375 35Z" fill="#22B3C1"/>
</svg>
