<svg width="17" height="17" viewBox="0 0 17 17" fill="none" xmlns="http://www.w3.org/2000/svg">
<path d="M11.3337 5.4502H5.8025C6.27125 2.66895 7.33375 0.700195 8.58375 0.700195C9.8025 0.700195 10.8962 2.66895 11.3337 5.4502ZM5.58375 8.4502C5.58375 7.7627 5.615 7.10645 5.6775 6.4502H11.4587C11.5212 7.10645 11.5525 7.7627 11.5525 8.4502C11.5525 9.16895 11.5212 9.8252 11.4587 10.4502H5.6775C5.615 9.8252 5.58375 9.16895 5.58375 8.4502ZM15.7087 5.4502H12.3337C12.0525 3.7002 11.5525 2.10645 10.7712 1.04395C13.0212 1.7002 14.8337 3.35645 15.7087 5.4502ZM6.365 1.04395C5.58375 2.10645 5.08375 3.7002 4.8025 5.4502H1.4275C2.3025 3.35645 4.115 1.7002 6.365 1.04395ZM16.0525 6.4502C16.2087 7.10645 16.3025 7.7627 16.3025 8.4502C16.3025 9.16895 16.2087 9.8252 16.0525 10.4502H12.4587C12.5212 9.79395 12.5837 9.1377 12.5837 8.4502C12.5837 7.79395 12.5212 7.10645 12.4587 6.4502H16.0525ZM4.58375 8.4502C4.58375 9.1377 4.615 9.79395 4.6775 10.4502H1.08375C0.9275 9.8252 0.83375 9.16895 0.83375 8.4502C0.83375 7.7627 0.9275 7.10645 1.08375 6.4502H4.6775C4.615 7.10645 4.58375 7.79395 4.58375 8.4502ZM5.8025 11.4502H11.3337C10.8962 14.2627 9.8025 16.2002 8.58375 16.2002C7.33375 16.2002 6.27125 14.2627 5.8025 11.4502ZM10.7712 15.8877C11.5525 14.8252 12.0837 13.2314 12.3337 11.4502H15.7087C14.8337 13.5752 13.0212 15.2314 10.7712 15.8877ZM1.4275 11.4502H4.8025C5.08375 13.2314 5.58375 14.8252 6.365 15.8877C4.115 15.2314 2.3025 13.5752 1.4275 11.4502Z" fill="#AFAFAF"/>
</svg>
